<?xml version="1.0" standalone="no"?>
<!DOCTYPE svg PUBLIC "-//W3C//DTD SVG 20010904//EN"
 "http://www.w3.org/TR/2001/REC-SVG-20010904/DTD/svg10.dtd">
<svg version="1.0" xmlns="http://www.w3.org/2000/svg"
 width="325.000000pt" height="325.000000pt" viewBox="0 0 325.000000 325.000000"
 preserveAspectRatio="xMidYMid meet">
<metadata>
Created by potrace 1.14, written by Peter Selinger 2001-2017
</metadata>
<g transform="translate(0.000000,325.000000) scale(0.100000,-0.100000)"
fill="#000e76" stroke="none">
<path d="M1040 1625 l0 -1128 101 7 c286 18 515 117 718 311 416 396 466 1037
115 1495 -50 66 -170 182 -239 232 -167 120 -369 190 -594 204 l-101 7 0
-1128z m247 892 c57 -52 116 -138 158 -231 35 -76 91 -244 83 -251 -11 -11
-201 -45 -285 -51 l-93 -7 0 305 c0 168 3 307 6 311 11 10 83 -32 131 -76z
m297 -46 c82 -48 195 -146 267 -232 40 -47 41 -51 23 -64 -30 -21 -181 -95
-196 -95 -8 0 -22 32 -36 83 -25 91 -94 242 -141 311 -17 24 -31 47 -31 50 0
10 33 -6 114 -53z m413 -478 c56 -143 67 -204 68 -368 0 -125 -4 -164 -23
-234 -18 -67 -66 -197 -76 -208 -2 -2 -38 17 -82 42 -43 25 -105 55 -137 68
-34 13 -55 27 -53 34 3 6 10 77 17 156 8 110 8 178 -1 286 -6 79 -13 148 -16
154 -2 7 25 24 64 39 37 15 96 45 132 67 36 21 68 40 71 40 3 1 20 -34 36 -76z
m-433 -141 c14 -90 18 -274 7 -376 -6 -60 -13 -111 -16 -114 -2 -3 -42 3 -87
13 -45 10 -134 23 -198 29 l-115 11 0 210 0 210 100 8 c55 4 138 16 185 26
121 26 117 27 124 -17z m-143 -607 c47 -9 91 -20 99 -25 10 -6 8 -25 -14 -97
-54 -171 -131 -309 -219 -390 -48 -44 -120 -86 -131 -76 -3 4 -6 143 -6 311
l0 305 93 -6 c50 -3 131 -13 178 -22z m345 -115 c44 -22 90 -48 104 -59 l24
-19 -114 -114 c-108 -107 -226 -191 -297 -212 -21 -7 -20 -3 13 46 52 79 109
201 140 306 16 50 34 92 40 92 6 0 47 -18 90 -40z"/>
</g>
</svg>
